<?xml version="1.0" encoding="UTF-8"?><svg id="Layer_2" xmlns="http://www.w3.org/2000/svg" viewBox="0 0 472.39 490.82"><defs><style>.cls-1{fill:#34c2d7;}.cls-2{fill:#1e709b;}.cls-3{fill:#0c1c2e;}.cls-4{fill:#104264;}.cls-5{fill:#f8f9f9;}</style></defs><g id="Layer_1-2"><path class="cls-3" d="M451.89,400.63c-.99,7.92,2.66,27.86,2.02,39.01-2.34,40.81-44.36,72.38-79.56,33.46-3.52-3.89-14.96-22.71-16.52-23.48-2.42-1.19-7.57-1.11-11.22-2.78-10.48-4.78-20.15-10.53-28.77-18.23-2.03-1.82-4.77-7.15-5.17-7.35-.68-.34-12.08,1.11-15.28.8-8.51-.82-18.61-4.37-25.43-9.56-2.79-2.12-8.63-9.97-9.52-10.48-2.02-1.15-32-1.68-33.43-.79-.53.33-2.72,9.71-3.66,11.84-19.93,44.99-55.56,68.66-106.01,65.06-5.3-.38-26.37-6.19-27.75-5.87-2.1.47-5.22,6.53-7.68,8.37-33.22,24.97-67.59.42-71.01-37.06-1.19-13.05,2.95-30.62,1.95-40.86-.38-3.86-5.98-15.35-7.47-20.62-8.52-30.08-11.05-57.27.03-87.96l6.17-19.73c1.62-4.95,26.08-31.36,31.28-35.82,16.84-14.41,41.52-26.4,62.98-31.02,24.57-5.3,49.89-5.91,75.03-4.48-40.58-27.41-97.11-36.69-122.17-83.32-22.54-41.95-2.38-83.98,38.81-102.52C108.79,13.06,149.53.06,158.36,0c10.11-.07,17.11,5.51,25.24,6.85,14.48,2.39,35.1.01,45.78,15.22,3.28,4.67,2.43,8.19,4.43,11.57,2.29,3.87,9.95,5.89,11.57,12.43,2.51,10.15-4.88,16.99-7.31,24.74-3.43,10.93-.92,13.69-8.39,25.61-1.51,2.4-6.15,5.23-6.32,5.62-.63,1.46,1.14,4.36-1.68,9.38-6.89,12.27-32.49,10.63-42.47,2.25l6.14,11.43c31.56,35.03,94.95,29.69,132.97,61.03,2.81,2.32,11.93,13.34,13.25,13.75,3.78,1.15,10.41-.32,14.76.24,7.61.97,28.96,7.08,33.15,6.97,7.41-.18,9.09-15.5,8.13-21.25-1.6-9.57-20.29-25.92-18.68-30.1,2-5.17,18.62,2.59,22.22,4.56,15.33,8.39,27.62,25.33,27.68,43.3.02,5.39-4.99,19.01-4.81,20.03.26,1.5,19.8,15.46,23.35,19.47,29.32,33.14,44.66,93.24,28.43,135.44l-13.9,22.1ZM98.86,147.09c8.77,6.13,18.53,11.05,28,16,17.47,9.12,36.54,15.75,53.3,26.2,22.96,14.31,53.67,40.37,35.7,69.8-.41.27-1.21.48-2,1-11.86,7.79-13.68,11.71-29.19,15.31-30.3,7.05-100-.39-113.81,34.69-2.74,6.96-4.96,18.61-5,26,0,1.4,1.59,18.08,2.49,17.99s7.52-13.32,9.28-15.72c12.36-16.92,31.95-27.22,52.23-31.27,29.55-5.9,58.99-2.63,88-14,8.98-3.52,16.16-7,22-14,36.42-34.17,8.09-71.28-26.33-91.17-41.1-23.75-123.11-35.27-118.67-97.83.78-11.02,5.32-26.07,13.99-33.51l-1.5-.52c-19.38,3.14-29.97,18.41-32.51,37.01l-1.98-2.99c.62-2.74.17-6.47.73-8.79,7.02-29.33,30.94-41.54,59.65-35.29l2.63-7.91c2.12.18,1.51,3.78,1.98,4.99,2.37,6,2.97,7.41,9.3,10.2,4.68,2.06,42.66,13.35,47.22,13.78,11.69,1.08,19.53-5.32,28-5.06s9.22,8.63,13.17-3.73c.9-2.8,1.27-6.24,1.3-9.19-6.85,8.32-4.97,2.29-5.99,2,10.59-7.31-6.72-11.27-8.55-16-.69-1.78,1.14-4.43.36-7.26-1.65-5.99-23.45-13.21-29.81-11.73l5.98,6.51-1.47,1.47c-10.61-6.14-25.56-15.01-38.13-14.85-5.79.07-45.58,12.24-52.65,15.1-62.14,25.19-58.59,87.22-7.74,122.76ZM147.86,80.08c-2.96-4.29-7.64-6.5-10.96-10.53-2.18-2.64-7.96-13.46-9.04-13.98-4.36-2.05-13.28,5.29-13.88,8.23-1.4,6.77,27.35,18.82,33.89,16.27ZM158.69,64.26c-.8-.61-14.06-2.22-16.41-5.1-2.06-.45-1.58.58-1.02,2.03,1.55,4.08,44.4,46.76,49.32,48.69,5.34,2.1,30.78,3,24.28-3.78-.73-.76-15.6,1.81-21.06.56-9.24-2.11-20.36-17.79-25.74-25.26-2.53-3.52-8.58-16.55-9.35-17.14ZM193.85,103.1c1.96-1.77.62-25.28-1.52-27.98l-22.47-7.01c.01,5.1,19.13,39.39,23.99,34.99ZM230.86,71.09c-.29-.28-7.73-1.3-8-1-.71.79,3.59,17.49,1,21,4.34-.78,7.89-19.14,6.99-20ZM165.85,101.08c.61-1.05-8.73-12.48-9.67-12.81-4.87-1.7-17.34-.4-25.86-3.14-5.24-1.68-21.32-13.68-22.45-13.03-2.05,1.18-5.97,19.27-2.42,22.89,3.25,3.31,25.64,9.61,30.93,10.08,4.58.4,27.33-.31,29.47-3.99ZM212.86,72.09c-.52.5,0,12.4,0,14.5,0,.52,3.95,8.95,5.99,8.5,1.76-3.12.41-21.76-1.05-22.95-.22-.18-4.77-.23-4.95-.06ZM207.05,74.09l-8.07,1.63.08,20.38c3.61-2.07,9.98-19.96,7.99-22ZM210.86,104.08l-3.5-8.98-9.5,9.98,13-1ZM103.86,103.1c-.74.76,5.68,16.27,7.16,18.32,9.16,12.64,49.23,12.57,61.74,3.01l-6.49-15.24c-14.95,5.88-31.23,4.62-46.41.39-2.77-.77-15.4-7.1-16-6.48ZM193.85,144.11c-4.98.38-11.67-11.25-14.63-11.8-1.41-.26-21.78,6.39-27.89,6.76-7.6.46-14.94-.76-22.47-.96,17.55,16.74,44.45,18.38,65,6ZM220.85,157.11c-4.16.2-15.68-7.04-18.31-6.79-.67.06-8.3,4.34-10.9,5.06-4.97,1.37-11.9,2.21-16.29,3.73-.93.32-3.36.2-1.48,1.98.75.71,18.33,7.04,19.43,6.97,6.14-.37,20.09-10.39,27.56-10.94ZM258.85,169.11c-17.57-6.5-27.76-7.4-45.51-1.03-.98.35-12.68,4.2-10.49,6,.78.64,17.43,8.09,18.43,8.01,1.26-.1,13.42-6.84,17.04-8.03,6.75-2.22,13.87-2.66,20.52-4.96ZM395.86,182.09c2.81,12.51-.21,19.36-6,29.99l15,6.01c7.87-11.41,4.05-27.99-4.49-38.01-1.01-1.19-6.77-7.6-8.51-5.98-.33.3,3.45,5.56,4,7.99ZM282.36,188.09c5.78-.56,13.01,0,19,0,.59,0,2.68,2.16,3.49.51-21.23-17.94-53.44-14.64-75.51-.5l15.06,12.01c12.05-4.75,24.86-10.75,37.96-12.02ZM328.85,217.09c-5.28-13.16-8.91-19.32-23.63-20.85-19.39-2.02-36.84,1.99-54.36,9.88l10.5,15.98,67.49-5.01ZM338.86,216.09c.82,4.3,2.15,8.08,3,12,.47,2.16-.37,10.87,1.66,12.04,6.56,3.77,13.65-1.36,15.34-8.04,2.03-8.04-3.81-9.39-6-16,.24-.21,4.15-4.94,3.02-5.52-4.12-.2-8.37-1.51-12.47-1.53-10.51-.06-5.84.22-4.55,7.05ZM181.86,219.09c-.67,7.19-9.19,9.82-9,17,.36,13.78,26.41,15.42,35.51,13.01,6.04-1.6,2.76-11.86,1.49-16.01-1.74-5.66-4.94-10.77-9-15-9.9-10.31-14.75-4.26-28-6.99,1.27,1.46,7.97,7.71,9,7.99ZM171.98,219.79c-.58-1.22-10.8-8-11.5-8h-28.5v1.98s9,6.02,9,6.02c-4.5,8.46-12.62,11.74-8,22,6.12,13.6,23.47,2.24,35,4.99.37-3.58-1.92-6.49-2-9.99-.1-4.62,6.41-16.15,6-17ZM364.86,220.09c1.37,5.81,3.13,9.94,1,16-.49,1.39-5.19,6.6-5,6.99.46.91,17.75,7.72,18.76,7.84,3.2.35,6.59-1.21,9.23-2.82,9.55-5.81,3.21-12.11,4-20,.38-3.82,6.1-2.43,3.99-4.98s-32.58-13.69-33.99-5.44c-.27,1.58,1.96,2.27,1.99,2.43ZM128.86,223.09c.34-.98,3.84-.48-.1-3.4-10.5-7.8-22.63-1.74-33.9.42l10,6.99c-.66.5-7.5,13.29-7.76,14.73-1.08,5.84-.77,7.99,2.76,12.27,2.12,2.56,4.66,4.84,8.35,4.7,1.13-.04,20.83-5.92,21.64-6.71,1.17-1.12-4.76-7.06-4.99-7.99-1.86-7.54,1.7-14.3,4-21ZM69.86,244.09c-5.24,8.68-2.88,24.21,9,27,2.62.62,4.33,1.41,7.22.77.73-.16,12.42-7.13,12.77-7.79,1.43-2.72-5.74-5.64-5.99-5.98-5.03-6.67-3.32-17.94,0-25,7.56-4.35-3.69-6.7-7.8-6.81-4.99-.13-30.6,13.4-30.18,16.32.11.75,12.43-1.83,14.98,1.49ZM331.74,226.22c-5.23-3.68-57.69,7.28-67.88,3.88,1.37,5.51-.73,14.8,4.41,18.09,8.63,5.53,60.63,10.48,64.44,2.25,1.34-2.9.72-23.03-.96-24.22ZM420.86,248.09c.38.11,8.24,1.27,7.99-.48-5.13-3.63-26.37-27.34-27.99-12.52-.82,7.45.91,13.06-6,19-.68.58-6.86,1.82-6.98,3.5-.06.81,10.56,10.3,12.06,10.95,2.03.87,3.25.31,4.92.55,15.24,2.2,13.78-9.76,16-21ZM59.86,249.09c-1.13-.21-14.1.93-14.78,1.23-1.86.82-15.02,17.75-17.22,20.76l16-1.99c-.14,1.25,1.7,13.26,2.3,15.2,2.4,7.86,8.7,11.07,16.7,10.8,1.96-.07,4.09.03,5.75-1.26.72-.56,11.05-13.37,11.24-14.25.51-2.42-5.02-1.47-6.99-2.48-4.32-2.22-9.92-7.53-11.22-12.28-1.39-5.09.29-10.46-.78-13.72-.11-.34.14-.86,0-1l-1-1ZM359.86,254.08c-6.44-4.55-20.36-8.28-19,3l19-3ZM330.85,259.1c-.6-.67-14.05,3.6-17.64,3.85-15.8,1.1-33.21-1.92-47.88-7.77-3.73,14.34-14.22,15.54,2.16,23.77,10.21,5.13,46.33,13.69,54.42,5.43,2.01-2.05,10.01-24.08,8.93-25.28ZM151.86,257.09c-2.34.27-17.33,2.39-18,3.01-.4.37,6.95,7.81,7.45,8.04,8.78,4.07,48.8-1.67,57.26-7.8.85-.62,1.86.11,1.28-2.25-4.77.79-9.49-.94-13.99-1.01-11.74-1.19-22.22-1.36-34,0ZM426.86,257.09c-3.9,3.87-1.2,16.07-16,20-1.33.35-6.91-.66-6.99.49-.07.99,7.87,16.66,8.94,17.78,1.52,1.58,2.51,1.12,4.05,1.73,9.15,3.66,15.91.44,19.78-8.72.42-.98,3.2-10.69,3.22-11.28l11.51,3.97c-2.24-5.45-16.48-31.94-24.51-23.97ZM317.87,305.1c-3.36,15.77,12.06,31.09,25.63,36.85,34.46,14.64,70.88-14.42,56.53-50.53-10.62-26.75-32.61-44.02-60.98-27.62l-7.19,21.29c30.97-.23,14.34,46.54-7.52,28.02-3.24-2.75-2.87-7.22-6.47-8.01ZM137.86,270.08c-6.45-8.59-12.69-8.68-21.99-4.97,8.59,4.5,10.96,8.27,21.99,4.97ZM116.85,272.1c-4.63.35-13.64-3.38-16.49,2-3.66,6.93,11.74,1.67,15.09.1,1.16-.54,1.82.44,1.39-2.1ZM34.86,277.09c-17.58,3.21-14.77,12.86-21.94,26.58l1.41,1.41c1.37-2.23,11.07-4.55,11.52-4.98,4.42,2.55,4.43,9.48,7.57,13.93,4.35,6.16,10.77,9.71,18.46,7.55,1.05-.29,1.64-2.29,1.97-2.48,1.31-.73,3.04.32,5.04-2.46.41-.57,4.83-12.47,4.85-13.17.05-2.81-4.04-.87-5.89-1.37-9.41-2.56-13.97-5.65-17.77-14.73-1.18-2.83-1.88-10.82-2.23-11.28-.67-.88-2.84.97-2.99,1ZM311.36,295.09c-5.64.2-11.35,0-17,0-11.78,0-31.05-9.27-41.01-15.74-7.95,10.12-18.33,8.53-5.95,19.71,9.34,8.44,30.4,16.97,43,16.11,9.12-.62,18.83-13.8,24.46-20.58-.8-1.62-2.88.49-3.49.51ZM444.86,289.09c-6.39,8.95-8.21,13.65-20,16l-11-.99c2.46,5.1,1.51,15.03,3.21,19.28,1.1,2.75,3.27,2.17,3.79,2.71,13.46,13.99,20.96-4.43,31-12l9.99,7c-1.89-10.7-1.67-31.02-13.93-34.56-5.15-1.49-2.19,1.35-3.05,2.56ZM323.86,301.09c-.38,13.46,20.5,13.43,20,1-.68-16.79-19.68-12.52-20-1ZM283.85,322.1c-18.53-1.31-38.18-11.27-49.6-25.92l-15.4,5.92c5.54,17.05,26.41,38.64,45.67,32.16,3.28-1.1,15.28-7.77,18.02-9.93.74-.58,1.92.15,1.3-2.24ZM245.85,340.11c-16.13-5.18-28.11-19.12-33.96-34.6l-19.97,3.64c-1.17,12.54,15.64,37.99,28.37,37.96,6.48-.02,19.66-3.84,25.56-7ZM21.86,309.09c-16.32,5.04-11.95,24.48-12.99,38,2.06-1.75,7.16-5.68,7.99-8,7.32-.32,8.7,9.04,13.62,13.88,9.05,8.9,17.91,10.83,24.38-.88.11-.2,2.32.4,3.02-2.47.32-1.32-.31-21.67-1.03-22.53-.26-.31-4.39,1.96-4.99,2-15.16.96-22.56-5.75-27.92-19.37l-2.08-.63ZM183.85,310.09l-22,2c-1.83,1.84,4.53,23.43,6.89,25.38.65.54,11.82,2.56,16.15,5.09,8.69,5.07,7.16,9.73,20.96,6.52-8.8-6.85-14.91-16.22-19.01-26.47-1.08-2.69-2.48-12.13-2.99-12.52ZM299.86,323.08l17.97,2.53-4.99-13.51-12.99,10.99ZM153.76,313.17c-1.03-.66-22.89,2.4-23.79,4.56-2.59,6.17,8.26,27.47,14.54,31.27l16.32-10.48c-4.14-3.24-5.95-24.64-7.07-25.35ZM350.43,382.53c2.68,4.47,5.46,9.75,10.66,9.35,26.51-2.05,52.96-50.88,45.76-75.78-7.53,21.92-27.62,36.63-51.37,33.88-2.62-.3-13.1-4.37-13.61-3.88-.7.68,5.33,14.36,5.86,18.63,1.22,9.77-2.61,8.94,2.7,17.81ZM122.85,319.1c-1.09-1.24-20.41,6.65-22.06,9.43-5.1,8.62,16.31,34.84,24.57,34.5,1.02-.04,13.71-8.63,13.48-9.42-.29-1-9.95-11.48-12.17-16.84-1.91-4.62-3.23-16.99-3.83-17.67ZM422.86,337.09c-.75-.22-5.88-5.36-6.99-3.99-.66.81-3.92,19.48-3.86,20.53.25,4.31,3.55,4.02,3.86,4.47.25.37-.19,2.49.94,3.52,6.62,6,13.88,3.88,20.98-.1,5.35-3,12.2-15.12,17.08-7.42.18,1.9,4.46,9.82,5.99,7.99,1.25-1.48,5.99-36.93-4.99-34.99-1.86-9.23-7.46,1.77-10.99,4.51-6.73,5.22-13.39,8.07-22.01,5.49ZM267.86,352.09c-4.8,9.36-5.33,8.78-4,20,1.1,9.28-1.51,9.22,9.99,9.99-15.46-57.6,70.63-56.79,56.01,0,10.22.3,9.46-1.27,9.99-9.99.43-6.95-.46-8.28-2-14-9.18-34.04-54.07-37.08-70-6ZM92.84,336.1c-2.25-1.34-14.44,15.64-14.81,18.76-1.16,9.71,25.65,30.93,35.19,27.09l6.59-13.8c-10.61-3.94-17.52-13.14-23.13-22.37-1.16-1.9-3.38-9.41-3.83-9.68ZM261.85,346.1l-48,11c-.39.38.71,7.58,1.12,7.87,2.75,1.95,34.8-1.89,40.87,1.13l6-20ZM147.86,374.09c4.82,21.73,36.95,22.18,42,0,7.94-34.84-50.11-36.6-42,0ZM323.86,370.09c.35-33.11-51.77-28.49-42,5,7.04,24.12,41.76,18.09,42-5ZM16.86,351.09c-1.35,1.1-5.15,5.76-5.5,7.07-1.05,3.89,6.72,35.24,9.49,33.93.43-.2,3.03-8.52,3.01-9,5.94-1.82,11.16,5.89,16.7,8.8,10.69,5.62,19,7.67,24.3-5.8.48-1.22,2.04-1.33,1.96-4.38-.03-1.07-5.13-19.95-5.97-20.62-1.62-1.28-4.5,2.8-4.99,3-10.55,4.38-17.09,3.73-26.49-3.01-2.67-1.92-10.2-11.9-11.01-11.97-.59-.05-1.11,1.66-1.49,1.98ZM203.86,359.09c-1.27.03-5.69-.22-6,.01-.58.44,1.2,11.11,1,14.49-.1,1.74-2.36,7.19-1.99,7.49.39.33,6.85.16,8-.48,2.14-1.21,1.59-4.66,1.99-6.51.67-3.09,1.93-14.21,0-16-.83-.76-2.83,1-2.99,1ZM411.86,367.09c-1.44-1-1.29-7.44-5.43-2.93-4.66,5.06-7.61,13.3-6.57,19.93,1.47,9.37,5.07,11.96,15.18,11.75,6.03-.12,16.53-5.61,18.51-5.63,1.77-.02,2.27,1.91,3.31,2.88-.24.85.01,2.85,0,4,0,.56.99.93,1,1,.28,1.49-.21,3.42.01,5,4.61-4.25,17.81-22.64,18.54-27.98.48-3.47-2.51-8.33-4.55-11.02-.25-.33-.34-2.88-1.5-2.98-.64-.05-8.04,6.38-10.46,7.51-10.08,4.73-18.65,4.99-28.04-1.54ZM97.48,402.09c4.38.64,9.96-.46,14.5,0l-.06-12.95c-11.04-1.05-20.93-6.23-28.98-13.52-3.46-3.13-11.1-17.28-7.72-.28,2.01,10.08,11.35,25.15,22.26,26.74ZM137.85,367.09c-5.01,1.65-8.15,2.57-7.78,8.23.56,8.62,5.12,6.44,11.79,8.76l-4-16.99ZM375.86,408.09c2,12.77,21.73,8.3,28,15-1.17,1.34-2.6,8.01-1.51,9.99,8.35-7.25,34.31-18.12,28.51-31.99-.53-1.28-14.86,2.1-18.36,1.87-4.38-.28-15.34-4.43-17.64-7.87-.83-1.25-1.66-8.7-2.01-9-1.67-1.47-14.38,8.17-15.41,10.08-1.44,2.66-2.04,8.95-1.58,11.92ZM67.9,395.68c-16.14,15.82-25.12,2.72-39.13-3.01-.1-.04-1.04-2.03-2-1-.35.38-2.88,8.51-2.6,10.02.68,3.76,15.96,26.34,19.65,28.1h1c-.37-1.87.53-5.58,0-7.02,2.71-4.18,11.17,1.6,16.02,2.54,10.9,2.1,22.29,3.07,22.1-11.57-.12-9.59-7.25-14.21-10.15-22.95h-2.77c-.64,1.32-1.16,3.94-2.13,4.89ZM341.98,419.09c.46,3.84,5.29,13.95,9,15-4.69,8.63,13.89,7.31,19.47,6.98,9.44-.57,21.48-1.78,24.53-11.98.02-.07.94-.28,1-1v-1.99c-.92-.19-2.23.22-3,0-6.61-1.91-21.74-5.97-24-14-.91-3.23,1.45-12.53.99-13-.61-.63-16.43,2.92-17.24,3.25-5.68,2.34-11.44,10.98-10.75,16.75ZM320.86,418.09c1.88,5.93,14.2,12.61,19.49,16.02l1.5-1.5c-3.1-3.1-7.43-8.04-7.99-12.52-1.32-10.46,8.86-18.38,8-18.99-4.24-3-24.14,7.08-21,16.99ZM213.86,410.09c-2.28-13.88-9.16-5.28-15.53.97-1.22,1.2-2.74,2.45-3.47,4.01,3.72-.26,8.18.36,11,3.01.95.89,2.06,6.44,4.01,5.52,3.51-1.66,4.5-10.44,3.99-13.52ZM114.86,409.09c-1.05-.76-16.12.57-19,0,1.51,5.15,19.43,17.98,21.98,9.46.14-.47-2.58-9.17-2.98-9.46ZM438.98,419.09c-11.61,1.03-8.94,13.32-11.85,22.61-.32,1.02-5.6,8.1-4.14,9.39,4.22,3.73,14.79-7.37,17-10.99,1.57-2.58,5-8.79,5-11.5v-15l-1.5-1.48c-2.35,2.03-3.97,3.75-4.5,6.98ZM170.85,421.1c-6.96,4.22-26.7-7.3-29.44-7.05-5.62.5-13.32,11.39-1.45,16.44,8.06,3.42,14.55.56,21.92-2.86,2.31-1.07,8.45-3.71,8.96-6.52ZM27.86,441.09c1.6,5.55,13.08,12.85,13.99,9.51s-9.54-23.85-14.99-25.51c-.41-2.51-1.74-8.18-4.99-7.99-.38,8.32-.53,17.62,5.99,23.99ZM87.86,424.79c-5.01,9.68-26.05,10.72-35,6h-1.99c.05,1.64-.14,3.35,0,5,.07.9.74,1.41,1,2,1.75,4.06,23.27,19.64,24.99,18,.29-.28-.28-2.65,0-3,6.5-7.77,27.05,2.91,25-17-.32-3.09-.39-5.69-1.98-8.52-.4-.72-9.78-10.41-10.52-10.47-.99-.08-1.09,7.22-1.49,7.99ZM191.86,438.09c.09.64-.07,1.35,0,2s-.02,1.34,0,2c.04,1.59-2.38,5.42.48,4.99,3.62-3.79,9.4-8.58,10.52-13.99,4.12-19.92-21.48-9.69-20.98-5.5.22,1.82,8.65,1.35,9.98,10.5ZM125.85,430.09c1.04-1-5.52-9.58-7.97-3.49l7.97,3.49ZM109.86,443.09c-.83,5.94-10.47,12.71-16,14-2.17-.34-10.66-1.21-8.97,2.46,1.02,2.21,25.3,9.91,28.49,9.62,3.69-.33,4.33-3.11,6.48-4.09,7.95-3.61,16.79-5.32,14-16-3.25-12.44-15.87-8.73-24.51-15.99-1.39.37.8,7.93.51,9.99ZM184.86,439.09c-1.44-7.52-19.2-6.71-19.94-1.37-.39,2.79,4.79,5.04,4.94,5.37.53,1.2,1.2,8.39,1,10-.4,3.27-3.08,5.76-3.51,8.97,9.49-4.69,12.02-2.81,15.51-12.97,1.15-3.34,2.74-6.15,2-10ZM162.86,447.09c-1.11-3.19-4.24-6.32-7.72-6.78-.86-.11-16.59,1.27-17.28,1.79-.36.27,3.54,6.18,4,7.99,1.57,6.14.14,7.81-3,13-2.31.64-13.45,6.9-6.53,6.99,2.85.03,20.27-2.54,22.27-3.67,2.26-1.28,1.93-3.64,3.26-5.32,3.82-4.8,7.4-7.1,5-14Z"/><path class="cls-2" d="M215.86,259.09c6.87-4.55,14.29-13.89,19.19-2.69,7.04,16.08-6.93,27.03-17.19,36.69-29.01,11.37-58.45,8.1-88,14-16.15-1.51-35.45,4.58-48.5,14-6,4.33-9.98,10.35-15.5,15,.04-7.39,2.26-19.04,5-26,29.66-23.26,65.69-19.74,100.2-26.3,14.36-2.73,38.34-8,42.8-23.7.79-.52,1.59-.73,2-1Z"/><path class="cls-2" d="M94.86,90.09c-4.44,62.56,77.56,74.09,118.67,97.83,34.42,19.89,62.75,57,26.33,91.17,50.49-60.5-64.61-98.99-102.74-113.76-2.57-1-7.64-3.41-10.26-2.24-9.47-4.95-19.23-9.87-28-16-3.89-6.62-10.36-11.32-14.83-17.67-3.44-4.89-5.4-9.31-7.17-14.33,3-10.46,3.74-24.87,18-25Z"/><path class="cls-1" d="M98.86,147.09c-50.85-35.54-54.4-97.57,7.74-122.76,7.07-2.86,46.86-15.03,52.65-15.1,12.58-.16,27.53,8.71,38.13,14.85l1.47-1.47-5.98-6.51c6.36-1.48,28.16,5.74,29.81,11.73.78,2.83-1.05,5.48-.36,7.26,1.83,4.73,19.14,8.7,8.55,16-5.56-1.57-14.32.85-19,0-3.86-.7-9.81-6.03-11-10-.65-2.18.97-4.77-.65-7.11-1.92-2.76-31.27-16.21-35.96-16.78-39.96-4.86-96.38,29.25-92.38,74.88.73,8.37,2.23,15.13,5,23,1.77,5.02,3.73,9.44,7.17,14.33,4.47,6.35,10.94,11.05,14.83,17.67Z"/><path class="cls-2" d="M71.86,92.09c-4-45.64,52.42-79.74,92.38-74.88,4.69.57,34.05,14.02,35.96,16.78,1.62,2.34,0,4.93.65,7.11-17.13-1.02-30.4-26.51-49-14.01,15.66,1.14,11.39,12.08,16.78,19.73,12.33,17.46,33.27-18.92,38.21,12.29-13.64,7.73-42.15-3.85-56.95-9.55-4.74-1.82-7.73-4.21-12.05-6.45-.48-1.21.14-4.81-1.98-4.99l-2.63,7.91c-28.71-6.25-52.64,5.96-59.65,35.29-.56,2.32-.11,6.05-.73,8.79-.11.46-.99,1.25-1,2Z"/><path class="cls-4" d="M126.86,163.09c2.63-1.18,7.69,1.24,10.26,2.24,38.12,14.77,153.23,53.26,102.74,113.76-5.84,7-13.02,10.48-22,14,10.26-9.66,24.24-20.61,17.19-36.69-4.9-11.19-12.32-1.86-19.19,2.69,17.97-29.43-12.74-55.49-35.7-69.8-16.76-10.45-35.83-17.08-53.3-26.2Z"/><path class="cls-5" d="M331.74,226.22c1.68,1.19,2.3,21.32.96,24.22-3.81,8.23-55.8,3.28-64.44-2.25-5.14-3.3-3.03-12.59-4.41-18.09,10.19,3.41,62.66-7.56,67.88-3.88Z"/><path class="cls-5" d="M330.85,259.1c1.08,1.2-6.92,23.23-8.93,25.28-8.08,8.25-44.21-.31-54.42-5.43-16.38-8.23-5.89-9.43-2.16-23.77,14.67,5.85,32.08,8.87,47.88,7.77,3.59-.25,17.03-4.52,17.64-3.85Z"/><path class="cls-5" d="M328.85,217.09l-67.49,5.01-10.5-15.98c17.52-7.89,34.96-11.9,54.36-9.88,14.73,1.54,18.35,7.69,23.63,20.85Z"/><path class="cls-5" d="M311.36,295.09c.61-.02,2.7-2.13,3.49-.51-5.63,6.78-15.33,19.96-24.46,20.58-12.59.86-33.66-7.67-43-16.11-12.37-11.18-1.99-9.59,5.95-19.71,9.96,6.48,29.23,15.74,41.01,15.74,5.65,0,11.36.2,17,0Z"/><path class="cls-1" d="M189.86,374.09c-14.39,10.62-27.51,10.03-42,0-8.11-36.6,49.94-34.84,42,0Z"/><path class="cls-5" d="M283.85,322.1c.62,2.39-.56,1.66-1.3,2.24-2.74,2.15-14.75,8.83-18.02,9.93-19.27,6.48-40.13-15.11-45.67-32.16l15.4-5.92c11.42,14.65,31.07,24.61,49.6,25.92Z"/><path class="cls-5" d="M103.86,103.1c.6-.62,13.24,5.71,16,6.48,15.18,4.22,31.46,5.49,46.41-.39l6.49,15.24c-12.51,9.56-52.58,9.64-61.74-3.01-1.49-2.05-7.9-17.57-7.16-18.32Z"/><path class="cls-2" d="M55.86,364.09l9,22c-5.31,13.47-13.62,11.42-24.3,5.8-5.54-2.91-10.76-10.63-16.7-8.8-.04-1.07-3.02-7.05-3.51-9.99-1.2-7.32-2.87-14.59-3.49-22.01.39-.31.91-2.03,1.49-1.98.81.07,8.34,10.06,11.01,11.97,9.4,6.74,15.94,7.39,26.49,3.01Z"/><path class="cls-5" d="M165.85,101.08c-2.14,3.68-24.88,4.39-29.47,3.99-5.29-.47-27.68-6.77-30.93-10.08-3.56-3.62.37-21.71,2.42-22.89,1.12-.65,17.21,11.35,22.45,13.03,8.52,2.74,20.99,1.44,25.86,3.14.95.33,10.28,11.76,9.67,12.81Z"/><path class="cls-5" d="M245.85,340.11c-5.89,3.17-19.08,6.99-25.56,7-12.73.03-29.55-25.42-28.37-37.96l19.97-3.64c5.85,15.48,17.83,29.43,33.96,34.6Z"/><path class="cls-2" d="M21.86,309.09l2.08.63c5.36,13.62,12.76,20.33,27.92,19.37l3,23c-6.47,11.71-15.33,9.77-24.38.88-4.92-4.83-6.3-14.2-13.62-13.88,2.35-6.61,1.7-22.2,5-30Z"/><path class="cls-2" d="M67.86,396.09l15,18c.18,14.59-11.17,13.62-22.03,11.53-4.84-.93-13.27-6.7-15.97-2.53-.38-1.03-8.7-11.93-10.36-15.14-2.39-4.62-5.01-9.61-5.64-14.86,13.96,5.71,22.92,18.77,39,3Z"/><path class="cls-5" d="M92.84,336.1c.45.27,2.67,7.78,3.83,9.68,5.62,9.23,12.52,18.43,23.13,22.37l-6.59,13.8c-9.54,3.84-36.35-17.38-35.19-27.09.37-3.12,12.56-20.1,14.81-18.76Z"/><path class="cls-1" d="M70.86,310.09c13.82-35.07,83.51-27.63,113.81-34.69,15.5-3.61,17.32-7.52,29.19-15.31-4.46,15.7-28.44,20.97-42.8,23.7-34.51,6.56-70.54,3.04-100.2,26.3Z"/><path class="cls-5" d="M122.85,319.1c.6.68,1.92,13.05,3.83,17.67,2.21,5.36,11.88,15.84,12.17,16.84.23.79-12.46,9.38-13.48,9.42-8.26.34-29.67-25.88-24.57-34.5,1.65-2.78,20.96-10.67,22.06-9.43Z"/><path class="cls-5" d="M282.36,188.09c-13.1,1.27-25.91,7.27-37.96,12.02l-15.06-12.01c22.08-14.14,54.28-17.44,75.51.5-.81,1.65-2.9-.51-3.49-.51-5.99,0-13.22-.56-19,0Z"/><path class="cls-5" d="M183.85,310.09c.51.39,1.91,9.83,2.99,12.52,4.1,10.25,10.22,19.62,19.01,26.47-13.8,3.21-12.27-1.45-20.96-6.52-4.33-2.53-15.49-4.55-16.15-5.09-2.36-1.95-8.72-23.54-6.89-25.38l22-2Z"/><path class="cls-2" d="M34.86,277.09c.16-.03,2.32-1.88,2.99-1,.35.46,1.05,8.45,2.23,11.28,3.81,9.08,8.36,12.16,17.77,14.73l-4,17c-.34.19-.93,2.18-1.97,2.48-7.69,2.17-14.11-1.38-18.46-7.55-3.14-4.45-3.15-11.38-7.57-13.93.36-.34,2.09-7.46,3.14-9.36,2.19-3.94,4.53-7.36,6.85-11.15,1.21-1.98,2.19-2.75-1-2.5Z"/><path class="cls-5" d="M153.76,313.17c1.12.71,2.92,22.12,7.07,25.35l-16.32,10.48c-6.27-3.8-17.13-25.1-14.54-31.27.91-2.16,22.76-5.22,23.79-4.56Z"/><path class="cls-2" d="M72.86,277.09l-10,18c-8,.27-14.3-2.93-16.7-10.8-.59-1.94-2.44-13.95-2.3-15.2.54-4.72,12.87-15.14,17-18,1.07,3.26-.61,8.63.78,13.72,1.3,4.75,6.9,10.06,11.22,12.28Z"/><path class="cls-5" d="M193.85,144.11c-20.54,12.38-47.44,10.74-65-6,7.53.2,14.87,1.42,22.47.96,6.11-.37,26.48-7.02,27.89-6.76,2.97.54,9.66,12.18,14.63,11.8Z"/><path class="cls-4" d="M72.86,90.09l1.98,2.99c2.53-18.61,13.13-33.88,32.51-37.01l1.5.52c-8.68,7.44-13.21,22.49-13.99,33.51-14.26.13-15,14.54-18,25-2.77-7.87-4.27-14.63-5-23,0-.75.89-1.54,1-2Z"/><path class="cls-2" d="M101.86,436.09c2.05,19.91-18.5,9.23-25,17,.71-3.73-.66-2.39-2.17-3.31-7.78-4.76-17.35-10.5-21.83-18.69,8.95,4.72,29.99,3.68,35-6,4.7,3.21,8.25,10.16,14,11Z"/><path class="cls-2" d="M171.98,219.79c.41.85-6.1,12.38-6,17l-33,5c-4.62-10.26,3.5-13.54,8-22h31Z"/><path class="cls-2" d="M128.86,223.09c-2.3,6.7-5.86,13.46-4,21l-25,10c-3.53-4.27-3.84-6.43-2.76-12.27.27-1.44,7.1-14.23,7.76-14.73,2.46-1.86,19.82-3.28,24-4Z"/><path class="cls-4" d="M206.86,59.09c3.38-1.91,5.19-1.14,5-8,4.68.85,13.44-1.57,19,0,1.02.29-.87,6.32,5.99-2-.03,2.95-.4,6.39-1.3,9.19-3.95,12.36-5.05,3.98-13.17,3.73s-16.31,6.14-28,5.06c-4.56-.42-42.53-11.71-47.22-13.78-6.33-2.79-6.93-4.2-9.3-10.2,4.32,2.24,7.31,4.63,12.05,6.45,14.8,5.69,43.31,17.28,56.95,9.55Z"/><path class="cls-2" d="M92.86,233.09c-3.32,7.06-5.03,18.33,0,25-4.97,3.27-11.66,7.25-14,13-11.88-2.79-14.24-18.32-9-27,2.8-4.64,18.53-8.43,23-11Z"/><path class="cls-5" d="M97.54,402.09c-10.91-1.59-20.25-16.66-22.26-26.74-3.39-17,4.26-2.85,7.72.28,8.05,7.29,17.94,12.46,28.98,13.52l.06,12.95c-4.54-.46-10.12.64-14.5,0Z"/><path class="cls-4" d="M151.86,257.09c10.77,3.02,23.45-.16,34,0,4.51.07,9.22,1.8,13.99,1.01.57,2.36-.43,1.63-1.28,2.25-8.46,6.13-48.49,11.87-57.26,7.8-.5-.23-7.85-7.67-7.45-8.04.67-.62,15.66-2.74,18-3.01Z"/><path class="cls-4" d="M129.86,307.09c-20.28,4.05-39.87,14.35-52.23,31.27-1.76,2.4-8.37,15.64-9.28,15.72s-2.5-16.6-2.49-17.99c5.52-4.64,9.51-10.66,15.5-15,13.05-9.42,32.35-15.51,48.5-14Z"/><path class="cls-5" d="M258.85,169.11c-6.65,2.3-13.77,2.73-20.52,4.96-3.62,1.19-15.77,7.93-17.04,8.03-1,.08-17.66-7.37-18.43-8.01-2.19-1.8,9.51-5.65,10.49-6,17.74-6.38,27.93-5.47,45.51,1.03Z"/><path class="cls-2" d="M133.86,449.09c2.79,10.68-6.05,12.39-14,16-7.82-.53-19.4-6.96-26-8,5.53-1.29,15.17-8.06,16-14,7.7,2.85,15.51,6.75,24,6Z"/><path class="cls-4" d="M209.86,233.09c1.27,4.15,4.55,14.41-1.49,16.01-9.1,2.41-35.15.77-35.51-13.01l37-3Z"/><path class="cls-4" d="M158.69,64.26c.78.59,6.82,13.63,9.35,17.14,5.38,7.47,16.5,23.15,25.74,25.26,5.46,1.25,20.33-1.32,21.06-.56,6.5,6.78-18.94,5.88-24.28,3.78-4.92-1.93-47.76-44.6-49.32-48.69-.55-1.46-1.04-2.49,1.02-2.03,2.35,2.88,15.62,4.49,16.41,5.1Z"/><path class="cls-2" d="M209.86,233.09l-37,3c-.19-7.18,8.33-9.81,9-17,3.69.98,14.83.08,19-1,4.06,4.23,7.26,9.34,9,15Z"/><path class="cls-4" d="M193.85,103.1c-4.86,4.4-23.98-29.89-23.99-34.99l22.47,7.01c2.14,2.7,3.48,26.21,1.52,27.98Z"/><path class="cls-5" d="M170.85,421.1c-.52,2.81-6.65,5.45-8.96,6.52-7.37,3.42-13.87,6.29-21.92,2.86-11.87-5.05-4.17-15.94,1.45-16.44,2.74-.25,22.47,11.28,29.44,7.05Z"/><path class="cls-5" d="M220.85,157.11c-7.46.55-21.41,10.57-27.56,10.94-1.1.07-18.68-6.26-19.43-6.97-1.88-1.77.55-1.65,1.48-1.98,4.4-1.52,11.33-2.36,16.29-3.73,2.6-.72,10.23-5,10.9-5.06,2.63-.25,14.16,6.99,18.31,6.79Z"/><path class="cls-5" d="M147.86,80.08c-6.54,2.55-35.29-9.5-33.89-16.27.61-2.94,9.53-10.28,13.88-8.23,1.09.51,6.86,11.34,9.04,13.98,3.32,4.02,8,6.24,10.96,10.53Z"/><path class="cls-2" d="M189.86,374.09c-5.05,22.18-37.18,21.73-42,0,14.49,10.03,27.61,10.62,42,0Z"/><path class="cls-1" d="M59.86,249.09l1,1c.14.14-.11.66,0,1-4.13,2.86-16.46,13.28-17,18l-16,1.99c2.2-3,15.36-19.93,17.22-20.76.68-.3,13.65-1.44,14.78-1.23Z"/><path class="cls-4" d="M165.97,236.79c.08,3.5,2.37,6.41,2,9.99-11.53-2.75-28.88,8.6-35-4.99l33-5Z"/><path class="cls-1" d="M34.86,277.09c3.19-.25,2.21.51,1,2.5-2.32,3.79-4.66,7.21-6.85,11.15-1.06,1.9-2.79,9.01-3.14,9.36-.45.43-10.15,2.75-11.52,4.98l-1.41-1.41c7.17-13.71,4.36-23.37,21.94-26.58Z"/><path class="cls-1" d="M21.86,309.09c-3.3,7.8-2.65,23.39-5,30-.82,2.32-5.92,6.25-7.99,8,1.03-13.52-3.33-32.96,12.99-38Z"/><path class="cls-2" d="M162.86,447.09c2.4,6.9-1.18,9.2-5,14-5.8,1.46-13.51.49-19,2,3.14-5.19,4.57-6.86,3-13l21-3Z"/><path class="cls-1" d="M128.86,223.09c-4.18.72-21.54,2.14-24,4l-10-6.99c11.27-2.16,23.4-8.21,33.9-.42,3.94,2.92.43,2.42.1,3.4Z"/><path class="cls-1" d="M171.98,219.79h-31l-8.99-6.02v-1.98s28.49,0,28.49,0c.7,0,10.92,6.78,11.5,8Z"/><path class="cls-1" d="M23.86,383.09c.02.47-2.59,8.79-3.01,9-2.76,1.31-10.53-30.03-9.49-33.93.35-1.32,4.15-5.98,5.5-7.07.63,7.41,2.29,14.68,3.49,22.01.48,2.94,3.46,8.93,3.51,9.99Z"/><path class="cls-1" d="M28.86,392.79c.63,5.25,3.26,10.24,5.64,14.86,1.66,3.22,9.98,14.11,10.36,15.14.53,1.44-.37,5.13,0,7h-1c-3.68-1.75-18.91-24.26-19.59-28.01-.27-1.51,2.25-9.61,2.6-9.99.95-1.03,1.89.95,1.99,1Z"/><path class="cls-4" d="M124.86,244.09c.23.94,6.17,6.87,4.99,7.99-.82.78-20.51,6.66-21.64,6.71-3.69.14-6.23-2.14-8.35-4.7l25-10Z"/><path class="cls-4" d="M202.86,433.09c-.52-5.62-8.52,6.15-11,5-1.33-9.15-9.76-8.68-9.98-10.5-.5-4.19,25.1-14.42,20.98,5.5Z"/><path class="cls-4" d="M133.86,449.09c-8.49.75-16.3-3.15-24-6,.29-2.06-1.9-9.62-.51-9.99,8.64,7.26,21.26,3.55,24.51,15.99Z"/><path class="cls-4" d="M26.86,425.09c5.44,1.67,15.85,22.31,14.99,25.51s-12.38-3.96-13.99-9.51c-1.37-4.76-.26-11.52-1-16Z"/><path class="cls-1" d="M93.86,457.09c6.6,1.04,18.18,7.47,26,8-2.15.98-2.78,3.76-6.48,4.09-3.19.29-27.46-7.41-28.49-9.62-1.69-3.67,6.79-2.81,8.97-2.46Z"/><path class="cls-5" d="M114.86,409.09c.4.29,3.13,8.98,2.98,9.46-2.55,8.52-20.48-4.3-21.98-9.46,2.88.57,17.95-.76,19,0Z"/><path class="cls-4" d="M162.86,447.09l-21,3c-.46-1.81-4.36-7.72-4-7.99.7-.52,16.42-1.9,17.28-1.79,3.48.46,6.61,3.58,7.72,6.78Z"/><path class="cls-1" d="M52.86,430.8c4.49,8.19,14.05,13.93,21.83,18.69,1.5.92,2.88-.43,2.17,3.31-.29.34.28,2.72,0,3-1.73,1.65-23.24-13.93-24.99-18l-1-2c-.13-1.65.06-3.36,0-5.01h1.99Z"/><path class="cls-4" d="M203.86,359.09l3,15c-.4,1.85.15,5.3-1.99,6.51-1.15.65-7.61.81-8,.48-.36-.31,1.89-5.75,1.99-7.49.2-3.38-1.58-14.05-1-14.49.31-.24,4.73.01,6-.01Z"/><path class="cls-1" d="M200.86,218.09c-4.17,1.08-15.31,1.98-19,1-1.03-.27-7.73-6.53-9-7.99,13.25,2.73,18.1-3.32,28,6.99Z"/><path class="cls-4" d="M213.86,410.09l-8,8c-2.82-2.65-7.28-3.27-11-3.01.73-1.56,2.26-2.82,3.47-4.01,6.37-6.26,13.24-14.85,15.53-.97Z"/><path class="cls-4" d="M92.86,258.09c.25.34,7.42,3.26,5.99,5.98-.35.66-12.04,7.63-12.77,7.79-2.9.64-4.6-.15-7.22-.77,2.34-5.75,9.03-9.73,14-13Z"/><path class="cls-2" d="M184.86,439.09c.74,3.85-.85,6.66-2,10l-12,4c.2-1.61-.47-8.8-1-10l15-4Z"/><path class="cls-1" d="M157.86,461.09c-1.34,1.68-1,4.04-3.26,5.32-2,1.13-19.41,3.7-22.27,3.67-6.92-.08,4.22-6.35,6.53-6.99,5.49-1.51,13.2-.54,19-2Z"/><path class="cls-4" d="M184.86,439.09l-15,4c-.15-.33-5.33-2.58-4.94-5.37.74-5.34,18.5-6.14,19.94,1.37Z"/><path class="cls-5" d="M212.86,72.09c.18-.17,4.73-.12,4.95.06,1.46,1.18,2.8,19.83,1.05,22.95-2.05.45-5.99-7.98-5.99-8.5,0-2.1-.52-14,0-14.5Z"/><path class="cls-4" d="M137.85,367.09l4,16.99c-6.67-2.32-11.23-.14-11.79-8.76-.37-5.66,2.77-6.58,7.78-8.23Z"/><path class="cls-4" d="M101.86,436.09c-5.75-.84-9.3-7.79-14-11,.4-.77.51-8.08,1.49-7.99.74.06,10.12,9.75,10.52,10.47,1.59,2.83,1.66,5.43,1.98,8.52Z"/><path class="cls-4" d="M54.86,352.09l-3-23c.6-.04,4.73-2.31,4.99-2,.72.87,1.35,21.21,1.03,22.53-.7,2.87-2.91,2.27-3.02,2.47Z"/><path class="cls-4" d="M72.86,277.09c1.97,1.01,7.5.07,6.99,2.48-.19.89-10.52,13.7-11.24,14.25-1.66,1.29-3.78,1.19-5.75,1.26l10-18Z"/><path class="cls-4" d="M67.86,395.66c.96-.94,1.48-3.56,2.12-4.87h2.76c2.89,8.7,10,13.31,10.12,22.87l-15-18Z"/><path class="cls-4" d="M55.86,364.09c.49-.2,3.37-4.28,4.99-3,.84.67,5.94,19.54,5.97,20.62.08,3.05-1.48,3.16-1.96,4.38l-9-22Z"/><path class="cls-4" d="M137.86,270.08c-11.03,3.3-13.4-.47-21.99-4.97,9.3-3.71,15.54-3.61,21.99,4.97Z"/><path class="cls-5" d="M206.97,74.09c1.99,2.05-4.38,19.93-7.99,22l-.08-20.38,8.07-1.63Z"/><path class="cls-5" d="M230.86,71.09c.9.86-2.65,19.22-6.99,20,2.58-3.51-1.72-20.21-1-21,.27-.3,7.71.72,8,1Z"/><path class="cls-4" d="M57.86,302.09c1.85.5,5.95-1.44,5.89,1.37-.01.7-4.44,12.6-4.85,13.17-2,2.78-3.74,1.73-5.04,2.46l4-17Z"/><path class="cls-1" d="M27.86,441.09c-6.52-6.37-6.37-15.68-5.99-23.99,3.26-.18,4.58,5.48,4.99,7.99.74,4.48-.37,11.24,1,16Z"/><path class="cls-1" d="M182.86,449.09c-3.49,10.16-6.02,8.29-15.51,12.97.43-3.22,3.11-5.7,3.51-8.97l12-4Z"/><path class="cls-1" d="M191.98,438.09c2.48,1.15,10.48-10.62,11-5-1.12,5.41-6.89,10.2-10.52,13.99-2.86.43-.45-3.4-.48-4.99v-2c-.07-.65.09-1.36,0-2Z"/><path class="cls-1" d="M116.85,272.1c.43,2.54-.24,1.56-1.39,2.1-3.35,1.57-18.75,6.82-15.09-.1,2.84-5.38,11.86-1.65,16.49-2Z"/><path class="cls-2" d="M205.86,418.09l8-8c.51,3.07-.48,11.85-3.99,13.52-1.95.92-3.06-4.63-4.01-5.52Z"/><polygon class="cls-4" points="210.86 104.08 197.86 105.08 207.36 95.1 210.86 104.08"/><path class="cls-2" d="M185.86,257.09c-10.55-.16-23.23,3.02-34,0,11.78-1.36,22.26-1.19,34,0Z"/><path class="cls-2" d="M203.86,359.09c.16,0,2.16-1.76,2.99-1,1.94,1.79.68,12.91,0,16l-3-15Z"/><path class="cls-5" d="M125.85,430.09l-7.97-3.49c2.45-6.09,9.01,2.49,7.97,3.49Z"/><path class="cls-2" d="M51.86,438.09c-.26-.59-.93-1.1-1-2l1,2Z"/><path class="cls-4" d="M191.98,442.09c-.02-.66.07-1.35,0-2v2Z"/><path class="cls-1" d="M69.86,244.09c-2.55-3.32-14.87-.73-14.98-1.49-.42-2.92,25.19-16.45,30.18-16.32,4.11.1,15.36,2.46,7.8,6.81-4.47,2.57-20.2,6.36-23,11Z"/><path class="cls-2" d="M60.86,250.09l-1-1,1,1Z"/><path class="cls-3" d="M200.86,41.09c1.19,3.97,7.14,9.3,11,10,.19,6.86-1.62,6.09-5,8-4.94-31.21-25.88,5.18-38.21-12.29-5.4-7.65-1.13-18.59-16.78-19.73,18.6-12.5,31.87,13,49,14.01ZM185.8,44.03c1.93-3.36-20.82-19.08-12.19-2.18,2.39,4.68,10.47,5.19,12.19,2.18Z"/><path class="cls-1" d="M185.8,44.03c-1.73,3.01-9.8,2.5-12.19-2.18-8.62-16.9,14.12-1.18,12.19,2.18Z"/><path class="cls-4" d="M317.87,305.1c3.6.78,3.23,5.26,6.47,8.01,21.86,18.53,38.49-28.25,7.52-28.02l7.19-21.29c28.37-16.39,50.35.87,60.98,27.62,14.34,36.11-22.08,65.17-56.53,50.53-13.56-5.76-28.99-21.08-25.63-36.85ZM357.61,261.3c-15.38,2.27-17.38,27.99-1.19,30.71,26.27,4.42,23.66-34.04,1.19-30.71ZM381.59,286.33c-11.86,2.54-15.26,22.78-2.44,28.97,25.25,12.19,31.07-35.1,2.44-28.97ZM370.5,338.73c13.9-12.37-1.87-35.75-18.59-25.08s2.09,39.76,18.59,25.08Z"/><path class="cls-4" d="M350.43,382.53c-5.31-8.87-1.48-8.04-2.7-17.81-.53-4.27-6.56-17.95-5.86-18.63.51-.49,10.99,3.58,13.61,3.88,23.75,2.75,43.84-11.96,51.37-33.88,7.2,24.9-19.25,73.73-45.76,75.78-5.2.4-7.98-4.88-10.66-9.35Z"/><path class="cls-1" d="M323.86,370.09c-3.39,1.11-3.61,4.86-7.07,7.43-11.58,8.61-23.7,3.58-34.93-2.43-9.77-33.49,42.35-38.11,42-5Z"/><path class="cls-2" d="M451.86,364.09c-.12,9.34-13.1,22.37-15,29-1.04-.97-1.54-2.9-3.31-2.88-1.99.02-12.49,5.51-18.51,5.63-10.11.21-13.71-2.38-15.18-11.75l12-17c9.39,6.52,17.95,6.27,28.04,1.54,2.42-1.14,9.82-7.57,10.46-7.51,1.15.09,1.24,2.64,1.5,2.98Z"/><path class="cls-2" d="M455.86,327.09c1.56,7.71-1.64,20.12-1,27-4.88-7.7-11.73,4.42-17.08,7.42-7.1,3.98-14.36,6.1-20.98.1-1.13-1.03-.69-3.15-.94-3.52l7-21c8.62,2.57,15.28-.28,22.01-5.49,3.53-2.74,9.13-13.74,10.99-4.51Z"/><path class="cls-2" d="M451.86,314.09c-10.04,7.57-17.54,25.99-31,12l-2-20.99c.38-.36,4.66.26,6,0,11.79-2.35,13.61-7.05,20-16,4.88,7.23,7.33,16.26,7,25Z"/><path class="cls-4" d="M336.86,358.09c1.45,4.16.9,9.96,3,14-.54,8.72.23,10.29-9.99,9.99,14.62-56.79-71.47-57.6-56.01,0-11.51-.77-8.89-.71-9.99-9.99.55-6.44,1.92-13.29,5-19,14.7-27.3,57.68-24.67,68,5Z"/><path class="cls-2" d="M430.86,401.09c-4.41,5.17-9.42,9.51-14.54,13.96-2.39,2.08-11.98,7.48-12.46,8.04-6.27-6.7-26-2.23-28-15l19-13c2.3,3.44,13.25,7.58,17.64,7.87,3.51.23,17.83-3.15,18.36-1.87Z"/><path class="cls-2" d="M439.86,277.09c-.02.59-2.81,10.29-3.22,11.28-3.87,9.16-10.63,12.38-19.78,8.72l-6-20c14.8-3.93,12.1-16.13,16-20,3.79,4.73,13.23,13.58,13,20Z"/><path class="cls-2" d="M392.86,426.09c.43,2.21-5.59,4.02-7.01,4.49-7.36,2.42-28.09,5.45-34.99,3.51-3.71-1.05-8.54-11.16-9-15l27-7c2.26,8.03,17.39,12.09,24,14Z"/><path class="cls-2" d="M420.86,248.09c-2.22,11.24-.76,23.2-16,21l-10-15c6.91-5.94,5.18-11.55,6-19,7.89,1.45,13.01,10.98,20,13Z"/><path class="cls-4" d="M261.85,346.1l-6,20c-6.08-3.02-38.12.82-40.87-1.13-.41-.29-1.51-7.49-1.12-7.87l48-11Z"/><path class="cls-2" d="M392.86,228.09c-.79,7.89,5.55,14.19-4,20-5.66-5.95-14.93-10.55-23-12,2.13-6.06.37-10.19-1-16l28,8Z"/><path class="cls-4" d="M341.86,419.09c-.69-5.77,5.07-14.41,10.75-16.75.81-.33,16.63-3.88,17.24-3.25.45.47-1.9,9.76-.99,13l-27,7Z"/><path class="cls-2" d="M323.86,370.09c-.24,23.09-34.96,29.12-42,5,11.23,6.01,23.35,11.04,34.93,2.43,3.46-2.57,3.69-6.32,7.07-7.43Z"/><path class="cls-1" d="M392.98,426.09c.77.22,2.08-.18,3,0v1.99s-1,1-1,1c-3.05,10.19-15.09,11.4-24.53,11.98-5.59.34-24.16,1.66-19.47-6.98,6.9,1.94,27.62-1.09,34.99-3.51,1.43-.47,7.45-2.28,7.01-4.49Z"/><path class="cls-4" d="M438.86,419.09c-1.04,6.35,2.21,14.28,1,21-2.21,3.62-12.77,14.73-17,10.99-1.45-1.28,3.82-8.36,4.14-9.39,2.91-9.29.24-21.57,11.85-22.61Z"/><path class="cls-2" d="M404.86,218.09l-15-6.01c5.79-10.63,8.81-17.48,6-29.99,11.06,7.78,10.94,23.98,9,36Z"/><path class="cls-1" d="M451.86,364.09c2.04,2.69,5.03,7.55,4.55,11.02-.73,5.34-13.93,23.73-18.54,27.98-.22-1.58.27-3.51-.01-5l-1-1c.01-1.15-.24-3.15,0-4,1.9-6.63,14.88-19.66,15-29Z"/><path class="cls-1" d="M444.86,289.09c.86-1.2-2.1-4.04,3.05-2.56,12.26,3.54,12.05,23.86,13.93,34.56l-9.99-7c.33-8.74-2.12-17.77-7-25Z"/><path class="cls-1" d="M337.86,357.79h-1c-10.32-29.67-53.3-32.3-68-5l-1-1c15.93-31.08,60.82-28.04,70,6Z"/><path class="cls-1" d="M430.86,401.09c5.8,13.88-20.16,24.74-28.51,31.99-1.09-1.99.34-8.66,1.51-9.99.49-.56,10.08-5.95,12.46-8.04,5.11-4.45,10.12-8.79,14.54-13.96Z"/><path class="cls-1" d="M343.86,302.09c-6.95,6.17-13.57,5.22-20-1,.32-11.52,19.32-15.79,20,1Z"/><path class="cls-4" d="M375.86,408.09c-.46-2.97.14-9.26,1.58-11.92,1.04-1.92,13.75-11.55,15.41-10.08.35.3,1.18,7.76,2.01,9l-19,13Z"/><path class="cls-4" d="M320.86,418.09c-3.14-9.91,16.76-19.98,21-16.99.86.61-9.32,8.52-8,18.99l-13-2Z"/><path class="cls-1" d="M364.86,220.09c-.04-.15-2.26-.84-1.99-2.43,1.41-8.24,31.96,2.98,33.99,5.44s-3.61,1.16-3.99,4.98l-28-8Z"/><path class="cls-4" d="M388.86,248.09c-2.65,1.61-6.04,3.17-9.23,2.82-1.01-.11-18.3-6.93-18.76-7.84-.19-.38,4.51-5.6,5-6.99,8.07,1.45,17.34,6.05,23,12Z"/><path class="cls-1" d="M455.86,327.09c10.98-1.94,6.24,33.51,4.99,34.99-1.54,1.83-5.82-6.1-5.99-7.99-.64-6.88,2.56-19.29,1-27Z"/><path class="cls-2" d="M338.86,216.09c6.03-.37,9.18,4.14,14,0,2.19,6.61,8.03,7.96,6,16-5.06-2.91-11.2-4.26-17-4-.85-3.92-2.18-7.7-3-12Z"/><path class="cls-1" d="M400.86,235.09c1.62-14.83,22.86,8.88,27.99,12.52.25,1.76-7.61.6-7.99.48-6.99-2.02-12.11-11.55-20-13Z"/><path class="cls-4" d="M358.86,232.09c-1.69,6.68-8.78,11.81-15.34,8.04-2.03-1.17-1.19-9.88-1.66-12.04,5.8-.26,11.94,1.09,17,4Z"/><path class="cls-1" d="M404.86,218.09c1.94-12.02,2.06-28.22-9-36-.55-2.42-4.33-7.68-4-7.99,1.74-1.62,7.5,4.79,8.51,5.98,8.54,10.02,12.36,26.6,4.49,38.01Z"/><path class="cls-4" d="M422.86,337.09l-7,21c-.31-.44-3.61-.16-3.86-4.47-.06-1.04,3.2-19.72,3.86-20.53,1.11-1.36,6.24,3.77,6.99,3.99Z"/><path class="cls-1" d="M352.86,216.09c-4.82,4.14-7.97-.37-14,0-1.29-6.83-5.96-7.11,4.55-7.05,4.1.02,8.35,1.33,12.47,1.53,1.13.57-2.78,5.31-3.02,5.52Z"/><path class="cls-4" d="M411.86,367.09l-12,17c-1.04-6.64,1.91-14.87,6.57-19.93,4.15-4.51,3.99,1.93,5.43,2.93Z"/><path class="cls-1" d="M439.98,440.09c1.21-6.72-2.04-14.65-1-21,.53-3.23,2.15-4.94,4.5-6.98l1.5,1.48v15c0,2.71-3.43,8.92-5,11.5Z"/><path class="cls-1" d="M333.86,420.09c.56,4.48,4.89,9.42,7.99,12.52l-1.5,1.5c-5.29-3.41-17.61-10.08-19.49-16.02l13,2Z"/><path class="cls-4" d="M394.86,254.09l10,15c-1.67-.24-2.9.32-4.92-.55-1.5-.65-12.12-10.14-12.06-10.95.12-1.68,6.3-2.92,6.98-3.5Z"/><path class="cls-4" d="M410.86,277.09l6,20c-1.54-.61-2.52-.15-4.05-1.73-1.08-1.12-9.02-16.78-8.94-17.78.09-1.15,5.67-.14,6.99-.49Z"/><path class="cls-2" d="M323.86,301.09c6.43,6.22,13.05,7.17,20,1,.5,12.43-20.38,12.46-20-1Z"/><path class="cls-4" d="M424.86,305.09c-1.34.27-5.62-.35-6,0l2,20.99c-.52-.54-2.69.04-3.79-2.71-1.7-4.25-.75-14.18-3.21-19.28l11,.99Z"/><path class="cls-4" d="M359.86,254.08l-19,3c-1.36-11.28,12.56-7.55,19-3Z"/><path class="cls-2" d="M268.86,353.09c-3.08,5.71-4.45,12.56-5,19-1.33-11.22-.8-10.64,4-20l1,1Z"/><path class="cls-2" d="M339.86,371.79c-2.1-4.04-1.55-9.84-3-14h1c1.54,5.72,2.43,7.05,2,14Z"/><polygon class="cls-4" points="299.86 323.08 312.84 312.1 317.83 325.61 299.86 323.08"/><path class="cls-1" d="M439.86,277.09c.23-6.42-9.21-15.27-13-20,8.03-7.97,22.27,18.52,24.51,23.97l-11.51-3.97Z"/><path class="cls-2" d="M394.86,429.09l1-1c-.06.72-.98.93-1,1Z"/><path class="cls-2" d="M437.86,398.09c-.01-.07-1.01-.44-1-1l1,1Z"/><path class="cls-3" d="M381.59,286.33c28.62-6.14,22.81,41.15-2.44,28.97-12.82-6.19-9.42-26.42,2.44-28.97ZM375.86,299.09c-2.36,14.43,17.96,17.43,20,5,2.65-16.12-18.02-17.1-20-5Z"/><path class="cls-3" d="M357.61,261.3c22.47-3.32,25.08,35.13-1.19,30.71-16.19-2.72-14.19-28.44,1.19-30.71ZM359.33,266.6c-13.55.78-11.74,21.93,1.89,21.16,12.69-.72,13.51-22.05-1.89-21.16Z"/><path class="cls-3" d="M370.5,338.73c-16.49,14.67-35.48-14.31-18.59-25.08s32.48,12.72,18.59,25.08ZM350.86,328.09c1.1,12.17,19.1,11.18,20,0,1.28-15.95-21.49-16.52-20,0Z"/><path class="cls-1" d="M395.86,304.09c-8.15,3.09-15.51,3.95-20-5,1.98-12.1,22.65-11.12,20,5Z"/><path class="cls-2" d="M395.86,304.09c-2.04,12.43-22.36,9.43-20-5,4.49,8.95,11.85,8.09,20,5Z"/><path class="cls-1" d="M359.33,266.6c15.41-.89,14.58,20.44,1.89,21.16-13.63.77-15.44-20.38-1.89-21.16Z"/><path class="cls-1" d="M370.86,328.09c-6.6,5.37-13.3,3.88-20,0-1.49-16.52,21.28-15.95,20,0Z"/><path class="cls-2" d="M370.86,328.09c-.9,11.18-18.9,12.17-20,0,6.7,3.88,13.4,5.37,20,0Z"/></g></svg>